# xmcd
#
# Track frame offsets: 
#        150
#        17498
#        34599
#        56967
#        73569
#        89519
#        106223
#        123149
#        141828
#        158958
#        178333
#        196986
#
# Disc length: 2928 seconds
#
# Revision: 0
# Processed by: cddbd v1.5.1PL2 Copyright (c) Steve Scherf et al.
# Submitted via: ExactAudioCopy v0.95b2
#
DISCID=a40b6e0c
DTITLE=Sponge - For All The Drugs In The World
DYEAR=2003
DGENRE=Rock
TTITLE0=Treat Me Wrong
TTITLE1=Leave This World
TTITLE2=Burn
TTITLE3=28 Days
TTITLE4=Unpopular Girl
TTITLE5=Talk To You
TTITLE6=Dandelions Roar
TTITLE7=Love and Roses
TTITLE8=Punch In The Nose
TTITLE9=Suicide Away
TTITLE10=Sanitarium
TTITLE11=Lucifer In Las Vegas
EXTD=
EXTT0=
EXTT1=
EXTT2=
EXTT3=
EXTT4=
EXTT5=
EXTT6=
EXTT7=
EXTT8=
EXTT9=
EXTT10=
EXTT11=
PLAYORDER=
